<?xml version="1.0" standalone="no"?>
<!DOCTYPE svg PUBLIC "-//W3C//DTD SVG 20010904//EN"
 "http://www.w3.org/TR/2001/REC-SVG-20010904/DTD/svg10.dtd">
<svg version="1.0" xmlns="http://www.w3.org/2000/svg"
 width="431.000000pt" height="431.000000pt" viewBox="0 0 431.000000 431.000000"
 preserveAspectRatio="xMidYMid meet">
<metadata>
Created by potrace 1.11, written by Peter Selinger 2001-2013
</metadata>
<g transform="translate(0.000000,431.000000) scale(0.100000,-0.100000)"
fill="#000000" stroke="none">
<path d="M1702 3437 c-42 -42 -52 -59 -52 -86 0 -25 -4 -32 -14 -28 -8 3 -31
9 -50 12 -33 7 -39 3 -86 -43 -41 -41 -50 -56 -50 -85 l0 -35 -49 13 -49 13
-51 -52 -51 -52 0 -833 0 -833 -27 6 c-16 3 -37 8 -48 11 -15 5 -33 -7 -72
-46 -43 -43 -53 -59 -53 -87 0 -25 -4 -33 -14 -29 -8 3 -30 9 -50 12 -32 6
-39 3 -85 -41 l-51 -49 0 -102 c0 -57 3 -103 6 -103 4 0 164 -43 358 -94 537
-145 720 -194 856 -230 220 -59 921 -247 1050 -282 l124 -34 53 52 53 52 0
101 0 100 -78 19 c-132 32 -122 21 -122 135 l0 99 -47 11 c-27 7 -72 19 -100
27 l-53 15 0 899 0 899 -52 15 c-29 8 -74 20 -100 27 l-48 11 0 102 0 101 -97
25 -98 25 -3 101 -3 101 -382 102 c-210 56 -389 104 -397 107 -9 2 -37 -18
-68 -49z m465 -587 l82 -22 3 -100 3 -101 95 -26 95 -26 3 -136 3 -136 -348
94 c-192 51 -349 93 -350 93 -2 0 -3 61 -3 135 l0 135 28 -6 c15 -4 36 -10 47
-14 15 -5 31 5 72 46 44 43 53 59 53 88 l0 34 68 -18 c37 -10 104 -28 149 -40z
m-315 -916 c51 -14 143 -38 203 -54 61 -16 173 -46 250 -67 l140 -38 3 -337 2
-336 -47 14 -47 14 -53 -52 c-43 -42 -53 -59 -53 -85 0 -18 -3 -33 -6 -33 -7
0 -211 54 -264 69 -24 7 -25 11 -28 108 l-3 100 -57 16 c-31 8 -76 20 -99 27
l-43 11 0 334 c0 184 2 335 4 335 3 0 47 -11 98 -26z"/>
</g>
</svg>
